<?xml version="1.0" ?><!DOCTYPE svg  PUBLIC '-//W3C//DTD SVG 1.1//EN'  'http://www.w3.org/Graphics/SVG/1.1/DTD/svg11.dtd'><svg enable-background="new 0 0 128 128" id="Layer_1" version="1.1" viewBox="0 0 128 128" xml:space="preserve" xmlns="http://www.w3.org/2000/svg" xmlns:xlink="http://www.w3.org/1999/xlink"><g><path d="M15.2,38.9c0.1,0,0.2,0.1,0.3,0.2c2.5,1.8,6.2,3.3,10.7,4.4c3.5,0.8,7.5,1.4,11.8,1.6l0.2,0l0,0l0.3,0   l0.1,0l0.2,0l0.2,0l0,0l0.3,0l0.2,0l0,0l0.2,0l0,0h0l0.4,0l0,0l0.1,0l0.2,0h0l0,0l0.3,0h0l0.1,0l0.3,0l0.3,0l0.1,0h0l0.3,0l0,0h0   l0.2,0l0.1,0l0,0l0.4,0h0l0,0l0.2,0l0,0l0.2,0l0.3,0l0,0l0.2,0l0.2,0l0.1,0l0.3,0l0,0l0.2,0c4.3-0.2,8.3-0.7,11.8-1.6   c4.5-1.1,8.2-2.6,10.7-4.4c0.1-0.1,0.2-0.1,0.2-0.1c2-1.4,3.1-3,3.1-4.7c0-2.7-3-5.2-7.9-7.2c-5.4-2.2-12.9-3.6-21.3-3.6   c-8.4,0-15.9,1.4-21.3,3.6c-4.9,2-7.9,4.6-7.9,7.2C12.1,35.9,13.2,37.4,15.2,38.9z M82.5,70.1v-7.8c-0.9,0.2-1.8,0.6-2.5,1.1   c-1.3,0.9-1.9,2-1.9,3.4c0,0.7,0.1,1.2,0.4,1.6c0.3,0.4,0.8,0.8,1.6,1c0.8,0.3,1.4,0.4,1.9,0.5C82,70,82.2,70.1,82.5,70.1z    M86.5,75.4V84c1.1-0.2,2.1-0.5,2.9-1.1c1.3-0.8,1.9-1.9,1.9-3.4c0-1.5-0.6-2.5-1.7-3.2C88.9,76,87.8,75.7,86.5,75.4z M82.5,54.4   c0-1.1,0.9-2,2-2c1.1,0,2,0.9,2,2v3.1c2.8,0.1,5.2,0.7,7.1,1.6c1.2,0.6,1.8,1.3,1.8,2.1c0,1.7-0.8,2.5-2.3,2.5   c-0.4,0-1.4-0.3-3.2-0.8c-1.2-0.4-2.3-0.6-3.5-0.7v8.6c3,0.5,5.3,1.3,7.1,2.5c2,1.3,3,3.4,3,6.2c0,3-1.1,5.3-3.4,7   c-1.8,1.3-4,2.1-6.6,2.4v3.1c0,1.1-0.9,2-2,2c-1.1,0-2-0.9-2-2v-3.1c-2.1-0.1-4.2-0.5-6.2-1.2c-2.5-0.8-3.8-1.8-3.8-2.8   c0-1.9,0.8-2.8,2.3-2.8c0.4,0,1.6,0.3,3.8,1c1.4,0.4,2.6,0.7,3.9,0.9v-9.3c-0.6-0.1-1.2-0.2-1.7-0.3C80,74.2,79,74,77.9,73.5   c-1.1-0.4-2-0.9-2.6-1.4c-0.6-0.5-1.2-1.2-1.7-2.1c-0.5-0.9-0.7-1.9-0.7-3.1c0-2.7,1.2-5,3.6-6.8c1.8-1.3,3.8-2.2,6-2.5V54.4z    M101.6,56c-4.4-4.4-10.4-7.1-17.1-7.1c-6.7,0-12.8,2.7-17.1,7.1c-4.4,4.4-7.1,10.4-7.1,17.1c0,6.7,2.7,12.8,7.1,17.1   c4.4,4.4,10.4,7.1,17.1,7.1c6.7,0,12.8-2.7,17.1-7.1c4.4-4.4,7.1-10.4,7.1-17.1C108.7,66.5,106,60.4,101.6,56z M84.5,44.9   c7.8,0,14.9,3.2,20,8.3c5.1,5.1,8.3,12.2,8.3,20s-3.2,14.9-8.3,20c-5.1,5.1-12.2,8.3-20,8.3c-7.8,0-14.9-3.2-20-8.3   c-5.1-5.1-8.3-12.2-8.3-20s3.2-14.9,8.3-20C69.6,48.1,76.7,44.9,84.5,44.9z M52.9,57c1.7-3.3,3.9-6.3,6.5-8.9   c0.7-0.7,1.4-1.3,2.1-1.9c-1.3,0.4-2.7,0.8-4.2,1.2l-0.5,0.1l-0.5,0.1c-3.7,0.8-7.8,1.3-12.1,1.5l0,0l-0.4,0l0,0l-0.3,0l-0.1,0   l-0.2,0l-0.1,0l-0.1,0l0,0l-0.2,0l-0.3,0l0,0h0l-0.2,0h0l0,0l-0.2,0l-0.1,0l-0.1,0l-0.1,0l-0.1,0l-0.3,0l-0.3,0l-0.1,0l-0.1,0   l-0.3,0h0l-0.3,0l-0.2,0l-0.1,0l-0.3,0l0,0c-5.2-0.1-10.1-0.7-14.4-1.8c-4.3-1-8-2.5-10.9-4.2c-0.6,0.6-1.2,1.1-1.5,1.7   c-0.5,0.7-0.7,1.5-0.7,2.2c0,1.6,1.1,3.2,3.1,4.7c0.1,0,0.2,0.1,0.3,0.2c2.5,1.8,6.2,3.3,10.7,4.4c3.5,0.8,7.5,1.4,11.8,1.6l0.2,0   l0,0l0.3,0l0.1,0l0.2,0l0.2,0l0,0l0.3,0l0.2,0l0,0l0.2,0l0,0h0l0.4,0l0,0l0.1,0l0.2,0h0l0,0l0.3,0h0l0.1,0l0.3,0h0.1l0.1,0l0.1,0   l0.1,0l0.1,0h0l0.1,0l0.1,0l0.1,0l0.1,0h0l0.1,0h0l0.1,0h0l0.1,0l0.1,0h0l0.1,0l0.1,0h0l0.1,0h0l0.1,0h0l0.1,0h0l0.1,0h0l0.1,0h0   l0.1,0h0l0.1,0h0l0.1,0h0l0.1,0h0l0.1,0h0l0.1,0l0.1,0h0l0.1,0l0.1,0h0l0.1,0h0l0.1,0h0l0.1,0h0l0.1,0h0l0.1,0h0l0.1,0h0l0.1,0   l0.1,0l0.1,0h0l0.1,0h0l0.1,0h0l0.1,0h0l0.1,0h0l0.1,0h0l0.1,0h0l0.1,0h0l0.1,0h0l0.1,0h0l0.1,0h0l0.1,0h0l0.1,0h0l0.1,0h0l0.1,0h0   l0.1,0h0l0.1,0h0l0.1,0h0l0.1,0h0l0.1,0h0l0.1,0h0l0.1,0h0l0.1,0h0l0.1,0h0l0.1,0h0l0.1,0h0l0.1,0h0l0.1,0l0,0l0.1,0l0,0l0,0l0,0   l0,0l0.1,0l0,0l0.1,0h0l0.1,0l0,0l0.1,0l0,0l0.1,0l0,0l0,0l0.1,0l0,0l0.1,0h0l0.1,0l0,0l0.1,0l0,0l0,0l0,0l0,0l0.1,0l0,0l0.1,0h0   l0.1,0l0,0l0.1,0l0,0l0,0l0,0l0,0l0.1,0l0,0l0.1,0l0,0l0.1,0l0,0l0.1,0l0,0l0,0l0,0l0,0l0.1,0l0,0l0.1,0l0,0l0.1,0l0,0l0.1,0l0,0   l0,0l0,0l0,0l0.1,0l0,0l0.1,0l0,0l0.1,0l0,0l0.1,0l0,0l0,0l0,0l0,0l0.1,0l0,0l0.1,0l0,0l0.1,0l0,0l0.1,0l0,0l0,0l0,0l0,0l0.1,0l0,0   l0.1,0l0,0l0.1,0l0,0l0.1,0l0,0l0,0l0,0l0,0l0.1,0l0,0l0.1,0l0,0l0.1,0l0,0l0.1,0l0,0l0.2,0l0,0l0.1,0l0,0l0.1,0l0,0l0.1,0l0,0   L52.9,57L52.9,57L52.9,57z M49.1,70.4c0.2-3.1,0.9-6.2,1.9-9l0,0l0,0l0,0v0l0,0v0l0,0l0,0l0,0l0,0l0,0l0,0l0,0v0l0,0l0,0l0,0l0,0   l0,0l0,0l0,0v0l0,0h0l0,0l0,0l0,0l0,0l0,0v0l0,0l0,0l0,0l0,0l0,0l0,0l0,0l0,0l0,0l0,0l0,0h0l0,0l0,0l0,0l0,0l0,0l0,0l0,0h0l0,0l0,0   l0,0l0,0l0,0l0,0l0,0l0,0l0,0l0,0l0,0l0,0l0,0l0,0l0,0h0l0,0l0,0l0,0h0l0,0l0,0l0,0l0,0l0,0h0l0,0h0l0,0h0l0,0h0l0,0h0l0,0l0,0l0,0   h0l0,0h0l0,0h0l0,0h0l0,0h0l0,0h0l0,0h0l0,0h0l0,0h0l0,0h0l0,0h0l0,0h0l0,0h0l0,0h0l0,0h0l0,0h0l0,0h0l0,0h0l0,0h0l0,0l0,0h0   l-0.1,0h0l-0.1,0h0l-0.1,0h0l-0.1,0h0l-0.1,0h0l-0.1,0h0l-0.1,0h0l-0.1,0h0l-0.1,0h0l-0.1,0h0l-0.1,0h0l-0.1,0h0l-0.1,0h0l-0.1,0h0   l-0.1,0h0l-0.1,0h0l-0.1,0h0l-0.1,0h0l-0.1,0l-0.1,0h0l-0.1,0h0l-0.1,0h0l-0.1,0l-0.1,0h0l-0.1,0h0l-0.1,0h0l-0.1,0h0l-0.1,0h0   l-0.1,0h0l-0.1,0h0l-0.1,0h0l-0.1,0h0l-0.1,0l-0.1,0h0l-0.1,0h0l-0.1,0l-0.1,0h0L44,62l-0.1,0h0l-0.1,0h0l-0.1,0h0l-0.1,0h0l-0.1,0   l-0.1,0h0l-0.1,0h0l-0.1,0h0l-0.1,0L43,62h0l-0.1,0h0l-0.1,0h0l-0.1,0l-0.1,0l-0.1,0h0l-0.1,0h0l-0.1,0h0l-0.1,0L42,62l-0.1,0   l-0.1,0h0l-0.1,0l-0.1,0l-0.1,0l-0.1,0h-0.1L41,62l-0.1,0l-0.1,0l-0.3,0h0l-0.3,0L40,62l-0.1,0l-0.3,0l0,0   c-5.2-0.1-10.1-0.7-14.4-1.8c-4.3-1-8-2.5-10.9-4.2c-0.6,0.6-1.2,1.1-1.5,1.7c-0.5,0.7-0.7,1.5-0.7,2.2c0,1.6,1.1,3.2,3.1,4.6l0,0   l0,0l0,0v0l0,0l0,0c0.1,0,0.2,0.1,0.2,0.1c0.3,0.2,0.6,0.4,0.9,0.6l0.1,0.1l0,0c0.2,0.1,0.4,0.2,0.5,0.3l0.1,0.1l0,0   c0.1,0.1,0.3,0.2,0.4,0.2l0.1,0.1l0,0l0.1,0.1l0.1,0.1l0,0l0.1,0.1l0,0l0.1,0.1l0,0l0.1,0.1l0,0l0.1,0.1l0,0l0.1,0.1l0,0   c0.1,0.1,0.3,0.1,0.5,0.2l0,0l0.1,0.1l0,0l0.1,0.1l0,0c0.2,0.1,0.3,0.1,0.5,0.2l0,0l0.1,0.1l0,0l0.2,0.1l0.2,0.1l0,0l0.2,0.1l0,0   l0.2,0.1l0,0l0.2,0.1l0,0l0.2,0.1l0,0l0.2,0.1l0,0l0.2,0.1l0,0l0.2,0.1l0,0L22,68l0,0l0.2,0.1l0,0l0.2,0.1l0,0l0.2,0.1l0,0l0.2,0.1   l0,0l0.2,0.1l0,0l0.2,0.1l0,0l0.2,0.1l0,0l0.2,0.1l0,0l0.2,0.1l0,0l0.2,0.1l0,0l0.2,0.1l0,0l0.2,0.1l0,0l0.2,0.1l0,0l0.2,0.1l0,0   l0.2,0.1l0,0l0.2,0.1l0,0l0.2,0.1l0,0l0.2,0.1l0,0l0.2,0.1l0,0l0.2,0.1l0,0l0.2,0.1l0.2,0l0,0l0.1,0l0.1,0l0.1,0l0.1,0l0,0l0.2,0   l0,0l0.2,0l0,0l0.1,0l0.1,0l0.1,0l0.1,0l0,0l0.2,0l0,0l0.2,0l0.1,0l0.1,0l0.1,0l0.1,0l0,0l0.2,0l0,0l0.2,0l0.1,0l0.1,0l0.1,0l0.1,0   l0.1,0l0,0l0.2,0l0,0l0.2,0l0.1,0l0.1,0l0.1,0l0.1,0l0.2,0l0,0l0.2,0l0,0l0.2,0l0.1,0l0.1,0l0.1,0l0.1,0l0.2,0l0,0l0.2,0l0,0l0.2,0   l0.1,0l0.1,0l0.1,0l0.1,0l0.2,0l0.2,0l0,0l0.2,0l0.1,0l0.1,0l0.1,0l0.1,0l0.2,0l0,0l0.2,0l0,0l0.2,0l0.1,0l0.1,0l0.1,0l0.1,0l0.2,0   l0,0l0.2,0l0,0l0.2,0l0.1,0l0.1,0l0.1,0l0.1,0l0.2,0l0,0l0.2,0l0,0l0.2,0l0.1,0l0.1,0l0.1,0l0.1,0l0.2,0l0,0l0.2,0l0,0l0.2,0l0.1,0   l0.1,0l0.1,0l0.1,0l0.2,0l0,0l0.2,0l0,0l0.2,0l0.1,0l0.1,0l0.1,0l0.1,0l0.2,0l0.3,0l0.3,0l0.3,0l0.3,0l0.3,0l0.3,0l0.3,0h0l0.4,0   l0,0l0.1,0l0.3,0l0,0l0.3,0h0h0l0.1,0l0.3,0h0.1l0.1,0h0.1h0l0.1,0h0l0.1,0h0l0.1,0h0l0.1,0h0l0.1,0h0l0.1,0h0l0.1,0l0.1,0h0l0.1,0   l0.1,0h0l0.1,0l0.1,0h0l0.1,0l0.1,0h0l0.1,0h0l0.1,0h0l0.1,0h0l0.1,0h0l0.1,0h0l0.1,0h0l0.1,0l0.1,0h0l0.1,0h0l0.1,0h0l0.1,0h0   l0.1,0h0l0.1,0h0l0.1,0h0l0.1,0h0l0.1,0h0l0.1,0h0l0.1,0h0l0.1,0l0.1,0h0l0.1,0h0l0.1,0h0l0.4,0h0l0.1,0h0l0.1,0h0l0.1,0h0l0.1,0   l0.1,0h0l0.1,0h0l0.1,0l0.1,0h0l0.1,0h0l0.1,0h0l0.1,0h0l0.1,0h0l0.2,0h0l0.1,0h0l0.1,0h0l0.1,0h0l0.1,0h0l0.1,0h0l0,0h0l0,0l0,0h0   l0,0h0l0,0l0.1,0l0,0h0l0,0h0l0,0l0,0h0l0,0l0,0h0l0,0h0l0,0l0,0h0l0,0l0,0h0l0,0l0.1,0h0l0,0l0,0l0,0l0,0l0,0l0,0l0,0l0,0l0,0l0,0   l0,0l0.1,0l0,0l0,0C47.9,70.5,48.5,70.5,49.1,70.4z M50.4,83.1c-0.7-2.4-1.1-4.8-1.3-7.4l0-0.1l0-0.1l0-0.1l0-0.1l0,0l0-0.1l0-0.1   l0-0.1l0-0.2l0-0.1l0-0.1l0-0.1l0-0.1l0,0l0-0.1h0l0,0l0,0l0,0l0,0l0,0l0,0l0,0l0,0l0,0l0,0l0,0l-0.1,0l0,0l0,0l0,0l0,0l0,0l0,0   l0,0l0,0l0,0l0,0l0,0l0,0l0,0l0,0h0l0,0l0,0l0,0l0,0l0,0l0,0l0,0l0,0l0,0l0,0l0,0l0,0l0,0l0,0l0,0l0,0l0,0l0,0l0,0l0,0l0,0l0,0l0,0   l0,0l0,0l0,0l0,0l0,0h0l0,0l0,0l0,0l0,0l0,0l0,0l0,0l0,0l0,0l0,0l0,0l0,0l0,0l0,0l0,0l0,0l0,0l0,0l0,0l0,0h0l-0.1,0l0,0l0,0h0l0,0   l0,0l0,0h0l0,0l0,0l0,0l0,0l0,0h0l0,0l0,0l0,0h0l0,0l0,0l0,0l0,0l-0.1,0l-0.1,0l-0.1,0l-0.1,0l-0.2,0l-0.1,0l-0.2,0h0l-0.1,0   l-0.1,0l-0.1,0h0l-0.1,0l-0.1,0l-0.1,0h0l-0.1,0l-0.1,0l-0.2,0l-0.3,0l-0.1,0l-0.1,0l-0.1,0l-0.1,0l-0.2,0l-0.1,0l-0.1,0l-0.1,0h0   l-0.1,0l-0.1,0l-0.1,0l-0.1,0l-0.3,0l-0.2,0l-0.1,0l-0.1,0l-0.1,0h0l-0.1,0l-0.1,0l-0.1,0h0l-0.1,0l-0.1,0l-0.1,0l-0.1,0l-0.1,0   l-0.1,0l-0.1,0l-0.1,0l-0.1,0l-0.1,0h-0.1l-0.1,0h0h-0.1l-0.3,0l-0.1,0l-0.1,0l-0.3,0h0l-0.3,0l-0.2,0l-0.1,0l-0.3,0l0,0l-0.2,0h0   l-0.2,0l0,0l-0.2,0l-0.1,0l-0.2,0l-0.1,0l-0.2,0l-0.1,0l-0.1,0l-0.1,0l-0.1,0l-0.2,0l-0.1,0l-0.2,0l-0.1,0l-0.2,0l0,0l-0.2,0l0,0   l-0.2,0l0,0l-0.2,0l0,0l-0.2,0l-0.1,0l-0.2,0l-0.1,0l-0.1,0l-0.1,0l-0.1,0l-0.1,0l-0.1,0l-0.2,0l-0.1,0l-0.2,0l0,0l-0.2,0l0,0   l-0.2,0h0l-0.2,0l0,0l-0.2,0l0,0l0,0l-0.2,0l-0.2,0l-0.1,0l-0.1,0l-0.1,0l-0.1,0l-0.1,0l-0.1,0l-0.2,0l-0.3,0l0,0l-0.2,0l0,0   l-0.2,0l0,0l-0.2,0l0,0l-0.2,0l-0.1,0l-0.2,0l-0.1,0l0,0l-0.2,0l0,0l-0.1,0l-0.1,0l-0.1,0l-0.2,0l-0.2,0l0,0l-0.2,0l0,0l-0.2,0h0   l-0.2,0l0,0l-0.2,0l0,0l-0.2,0l-0.1,0l-0.1,0l-0.1,0l0,0l-0.2,0l-0.1,0l-0.1,0l-0.1,0l-0.2,0l-0.1,0l-0.2,0l0,0l-0.2,0l0,0l-0.2,0   l0,0l-0.2,0l0,0l-0.2,0l-0.1,0l-0.2,0l-0.1,0l-0.1,0l-0.1,0l-0.1,0l-0.1,0l0,0l-0.2,0l-0.1,0l-0.2,0l0,0l-0.2,0l0,0l-0.2,0   c-4.3-1-8-2.5-10.9-4.2c-0.6,0.6-1.2,1.1-1.5,1.7c-0.5,0.7-0.7,1.5-0.7,2.2c0,2.7,3,5.2,7.9,7.2c5.4,2.2,12.9,3.6,21.3,3.6   c2,0,4-0.1,5.9-0.2C48.3,83.4,49.4,83.3,50.4,83.1z M73.2,43.8c0,0-0.1,0-0.1,0.1c-4.1,1.6-7.8,4-10.8,7.1c-1.9,1.9-3.5,4-4.8,6.3   l0,0l-0.2,0.3l0,0L57,57.9l0,0l-0.2,0.3l0,0.1l-0.1,0.2l0,0l0,0l0,0.1l-0.1,0.2l0,0l0,0l0,0.1l-0.1,0.2l0,0.1l0,0l0,0.1l0,0.1   l0,0.1l0,0l0,0.1l0,0.1l0,0l0,0c-1.9,4.1-3,8.6-3,13.4v0v0l0,0.4l0,0.1l0,0l0,0.4l0,0l0,0c0,0.3,0,0.5,0,0.8l0,0   c0.4,8,3.8,15.3,9.2,20.6c5.7,5.7,13.5,9.2,22.2,9.2c8.7,0,16.5-3.5,22.2-9.2c5.7-5.7,9.2-13.5,9.2-22.2c0-8.7-3.5-16.5-9.2-22.2   c-5.7-5.7-13.5-9.2-22.2-9.2C80.5,41.8,76.7,42.5,73.2,43.8z M74.4,34.2v4.9c3.2-0.9,6.5-1.4,10-1.4c9.8,0,18.7,4,25.1,10.4   c6.4,6.4,10.4,15.3,10.4,25.1c0,9.8-4,18.7-10.4,25.1c-6.4,6.4-15.3,10.4-25.1,10.4c-9.8,0-18.7-4-25.1-10.4   c-3.2-3.2-5.8-7-7.6-11.3c-1.4,0.2-2.9,0.4-4.4,0.5c-2,0.2-4.1,0.2-6.2,0.2c-8.9,0-16.9-1.5-22.8-3.9c-6.4-2.6-10.4-6.5-10.4-11V60   V47.1V34.2c0-4.4,4-8.3,10.4-11c5.9-2.4,13.9-3.9,22.8-3.9c8.9,0,16.9,1.5,22.8,3.9C70.5,25.9,74.4,29.8,74.4,34.2z" fill="#2B2D03"/><path clip-rule="evenodd" d="M95.4,61.2c0,1.7-0.8,2.5-2.3,2.5c-0.4,0-1.4-0.3-3.2-0.8   c-1.2-0.4-2.3-0.6-3.5-0.7v8.6c3,0.5,5.3,1.3,7.1,2.5c2,1.3,3,3.4,3,6.2c0,5.9-4.6,8.9-10,9.5v3.1c0,2.7-4,2.7-4,0v-3.1   c-2.1-0.1-4.2-0.5-6.2-1.2c-2.5-0.8-3.8-1.8-3.8-2.8c0-1.9,0.8-2.8,2.3-2.8c0.4,0,1.6,0.3,3.8,1c1.4,0.4,2.6,0.7,3.9,0.9v-9.3   c-2.3-0.3-5.4-1-7.2-2.5c-1.5-1.2-2.4-3.1-2.4-5.2c0-5.2,4.9-8.6,9.6-9.3v-3.2c0-2.7,4-2.7,4,0v3.1C89,57.6,95.4,58.5,95.4,61.2z    M101.6,90.3c9.5-9.5,9.5-24.8,0-34.3c-9.5-9.5-24.8-9.5-34.3,0c-9.5,9.5-9.5,24.8,0,34.3C76.8,99.8,92.1,99.8,101.6,90.3z" fill="#FFE64C" fill-rule="evenodd"/><path clip-rule="evenodd" d="M82.5,70.1v-7.8c-2.2,0.5-4.5,2.1-4.5,4.5c0,1.4,0.6,2.2,2,2.7   L82.5,70.1z" fill="#FFE64C" fill-rule="evenodd"/><path clip-rule="evenodd" d="M86.5,75.4V84c2.4-0.4,4.9-1.7,4.9-4.4   C91.3,76.7,89.2,76,86.5,75.4z" fill="#FFE64C" fill-rule="evenodd"/><path clip-rule="evenodd" d="M106.7,51c-8.7-8.7-21.8-11.6-33.5-7.1l-0.1,0.1   c-4.1,1.6-7.8,4-10.8,7.1c-2.4,2.4-4.2,4.9-5.7,7.9c-6.2,12-3.9,27,5.7,36.6c12.3,12.3,32.2,12.3,44.4,0   C119,83.1,119,63.2,106.7,51z M84.5,44.9c15.6,0,28.3,12.7,28.3,28.3c0,15.6-12.7,28.3-28.3,28.3c-15.6,0-28.3-12.7-28.3-28.3   C56.2,57.6,68.9,44.9,84.5,44.9z" fill="#FFE64C" fill-rule="evenodd"/><path clip-rule="evenodd" d="M67.1,39c6.4-4.6,2.7-9-4.6-12c-11.7-4.8-30.9-4.8-42.6,0   C12.8,30,9,34.4,15.2,38.9c0.1,0,0.2,0.1,0.3,0.2c6.1,4.4,17.4,6.1,26.1,6C50,45.1,61,43.4,67.1,39z" fill="#FFE64C" fill-rule="evenodd"/><path clip-rule="evenodd" d="M61.5,46.2c-5.8,2-12.6,2.9-18.8,3c-9.5,0.2-20.9-1.4-28.3-6   c-1.2,1.1-2.3,2.4-2.3,4c0,1.8,1.3,3.3,3.3,4.8c5.6,4,16.4,6,24.3,6l6.2-0.1l7-0.8C55,52.9,58,49.2,61.5,46.2z" fill="#EAB43B" fill-rule="evenodd"/><path clip-rule="evenodd" d="M49.8,61.5c-8.2,0.9-16.6,0.6-24.6-1.3c-4.3-1-8-2.5-10.9-4.2   c-1.2,1.1-2.3,2.4-2.3,4c0,1.6,1.1,3.2,3.1,4.6c2.5,1.6,3.8,2.3,6.6,3.3c7.1,2.4,14.2,3,21.7,2.9l5.6-0.4c0.2-3.1,0.9-6.2,1.9-9   l-0.5,0.1l-0.2,0L49.8,61.5z" fill="#EAB43B" fill-rule="evenodd"/><path clip-rule="evenodd" d="M44.7,74.8l-10.1-0.2L29.8,74c-5.3-0.8-11.1-2.4-15.5-5.1   c-5,4.4-1.1,8.4,5.6,11.2c8.3,3.4,20.2,4.4,30.4,3c-0.8-2.8-1.3-5.7-1.4-8.6L44.7,74.8z" fill="#EAB43B" fill-rule="evenodd"/></g></svg>